<?xml version="1.0" standalone="no"?>
<!DOCTYPE svg PUBLIC "-//W3C//DTD SVG 20010904//EN"
 "http://www.w3.org/TR/2001/REC-SVG-20010904/DTD/svg10.dtd">
<svg version="1.0" xmlns="http://www.w3.org/2000/svg"
 width="256.000000pt" height="256.000000pt" viewBox="0 0 256.000000 256.000000"
 preserveAspectRatio="xMidYMid meet">
<metadata>
Created by potrace 1.15, written by Peter Selinger 2001-2017
</metadata>
<g transform="translate(0.000000,256.000000) scale(0.100000,-0.100000)"
fill="#000000" stroke="none">
<path d="M125 2544 c-45 -25 -84 -64 -107 -108 -16 -31 -19 -54 -16 -111 4
-88 34 -140 105 -182 40 -23 59 -28 113 -28 136 1 224 89 225 225 0 54 -5 73
-28 113 -43 73 -94 101 -186 105 -55 2 -84 -2 -106 -14z m160 -116 c58 -46 65
-117 14 -167 -50 -51 -121 -44 -167 14 -35 44 -30 99 12 141 42 42 97 47 141
12z"/>
<path d="M868 2105 c-211 -52 -377 -227 -418 -440 -8 -42 -10 -232 -8 -645 l3
-585 25 -65 c70 -178 212 -308 390 -355 82 -22 1199 -22 1283 0 190 49 353
212 402 402 23 88 22 1198 -1 1287 -44 172 -176 316 -354 386 l-65 25 -600 2
c-487 1 -611 -1 -657 -12z m1237 -110 c136 -36 241 -124 303 -252 l37 -78 3
-584 c2 -513 1 -590 -13 -640 -31 -108 -99 -198 -197 -262 -109 -70 -112 -71
-763 -67 l-580 3 -78 37 c-128 62 -216 167 -252 303 -22 87 -22 1108 0 1204
38 160 173 297 331 335 90 22 1125 22 1209 1z"/>
<path d="M927 1819 c-88 -21 -156 -85 -181 -170 -20 -66 -20 -82 0 -148 65
-220 382 -235 471 -22 22 52 20 148 -4 202 -48 105 -173 166 -286 138z m124
-124 c90 -47 90 -193 0 -240 -91 -47 -201 17 -201 118 0 104 108 170 201 122z"/>
<path d="M1775 1076 c-203 -50 -333 -250 -296 -453 25 -136 103 -237 229 -296
60 -28 77 -32 157 -32 107 0 168 18 240 73 112 85 160 183 160 327 0 80 -4 97
-32 157 -40 84 -97 147 -170 186 -96 50 -189 62 -288 38z m159 -111 c197 -52
284 -267 173 -432 -87 -131 -262 -167 -391 -81 -205 135 -152 448 85 512 69
19 65 19 133 1z"/>
</g>
</svg>
