<?xml version="1.0" standalone="no"?>
<!DOCTYPE svg PUBLIC "-//W3C//DTD SVG 20010904//EN"
 "http://www.w3.org/TR/2001/REC-SVG-20010904/DTD/svg10.dtd">
<svg version="1.0" xmlns="http://www.w3.org/2000/svg"
 width="28" height="28" viewBox="0 0 225.000000 225.000000"
 preserveAspectRatio="xMidYMid meet">
<metadata>
Created by potrace 1.15, written by Peter Selinger 2001-2017
</metadata>
<g transform="translate(0.000000,225.000000) scale(0.100000,-0.100000)"
fill="#000000" stroke="none">
<path d="M127 2185 c-50 -17 -85 -50 -108 -100 -23 -49 -24 -84 -4 -133 32
-75 90 -115 170 -115 131 0 221 129 171 246 -19 45 -74 93 -121 106 -50 14
-61 13 -108 -4z"/>
<path d="M965 1790 c-139 -22 -272 -92 -353 -186 -58 -68 -110 -171 -127 -251
-21 -99 -21 -759 0 -858 23 -105 69 -189 153 -273 84 -85 194 -144 302 -161
102 -17 760 -14 841 3 210 45 395 229 438 434 7 33 11 195 11 430 0 415 -3
440 -62 562 -39 82 -149 193 -233 237 -121 63 -143 66 -550 69 -203 1 -392 -1
-420 -6z m45 -278 c211 -109 145 -411 -93 -429 -54 -4 -69 -1 -117 24 -174 89
-174 318 -1 406 74 37 140 37 211 -1z m768 -564 c74 -27 130 -73 179 -146 177
-263 -49 -606 -369 -562 -219 31 -368 265 -298 469 38 113 98 183 199 229 94
43 189 46 289 10z"/>
</g>
</svg>
