<?xml version="1.0" standalone="no"?>
<!DOCTYPE svg PUBLIC "-//W3C//DTD SVG 20010904//EN"
 "http://www.w3.org/TR/2001/REC-SVG-20010904/DTD/svg10.dtd">
<svg version="1.0" xmlns="http://www.w3.org/2000/svg"
 width="128.000000pt" height="128.000000pt" viewBox="0 0 128.000000 128.000000"
 preserveAspectRatio="xMidYMid meet">
<metadata>
Created by potrace 1.15, written by Peter Selinger 2001-2017
</metadata>
<g transform="translate(0.000000,128.000000) scale(0.100000,-0.100000)"
fill="#000000" stroke="none">
<path d="M186 1196 c3 -14 1 -33 -5 -43 -9 -16 -10 -16 -11 -1 0 23 -98 30
-111 8 -6 -11 -9 -7 -9 15 -1 29 -2 29 -11 7 -21 -53 26 -116 86 -116 63 0
103 62 78 122 -15 38 -26 43 -17 8z"/>
<path d="M487 993 c-9 -2 -15 -9 -12 -14 3 -5 -1 -6 -9 -3 -38 15 -127 -64
-163 -144 -22 -50 -23 -63 -23 -280 0 -217 1 -229 24 -277 26 -57 81 -109 143
-137 39 -17 68 -19 274 -18 264 1 298 8 365 82 69 77 74 97 74 343 0 256 -9
298 -82 372 -73 74 -113 83 -361 82 -117 -1 -220 -3 -230 -6z m58 -73 c34 -21
65 -73 65 -109 0 -33 -25 -83 -53 -110 -56 -51 -161 -32 -200 37 -70 120 70
255 188 182z m441 -319 c49 -22 111 -92 124 -140 26 -93 2 -181 -65 -240 -57
-50 -99 -64 -172 -58 -199 16 -283 260 -136 399 61 58 169 75 249 39z"/>
</g>
</svg>
